<svg xmlns="http://www.w3.org/2000/svg" xmlns:xlink="http://www.w3.org/1999/xlink" viewBox="0 0 610.42 789.21"><defs><style>.cls-1{mask:url(#mask);filter:url(#luminosity-noclip-5)}.cls-14,.cls-16,.cls-2,.cls-20,.cls-35,.cls-4,.cls-6,.cls-8{mix-blend-mode:multiply}.cls-2{fill:url(#linear-gradient)}.cls-3{mask:url(#mask-2);filter:url(#luminosity-noclip-6)}.cls-4{fill:url(#linear-gradient-2)}.cls-5{mask:url(#mask-3);filter:url(#luminosity-noclip-7)}.cls-6{fill:url(#linear-gradient-3)}.cls-7{mask:url(#mask-4);filter:url(#luminosity-noclip-8)}.cls-8{fill:url(#linear-gradient-4)}.cls-9{fill:none}.cls-10{isolation:isolate}.cls-11{clip-path:url(#clip-path)}.cls-12{fill:#fff}.cls-13{mask:url(#mask-5)}.cls-14,.cls-16,.cls-35{opacity:.4}.cls-14{fill:url(#linear-gradient-5)}.cls-15{mask:url(#mask-6)}.cls-16{fill:url(#linear-gradient-6)}.cls-17{fill:#f7f7f5}.cls-18{fill:#937efc}.cls-19{mask:url(#mask-7)}.cls-20{opacity:.58;fill:url(#linear-gradient-7)}.cls-21{fill:#e11d48}.cls-22{fill:#493ddd}.cls-23{fill:#f68987}.cls-24{fill:#e87979}.cls-25{fill:#f1a17f}.cls-26{fill:#867abf}.cls-26,.cls-28{opacity:.61}.cls-27{fill:url(#linear-gradient-8)}.cls-28{fill:#494c7e}.cls-29{fill:url(#linear-gradient-9)}.cls-30{fill:#060e3f}.cls-31,.cls-32{opacity:.55}.cls-31{fill:url(#linear-gradient-10)}.cls-32{fill:url(#linear-gradient-11)}.cls-33{fill:#e59173}.cls-34{mask:url(#mask-8)}.cls-35{fill:url(#linear-gradient-12)}</style><filter id="luminosity-noclip" width="136.81" height="32766" x="319.21" y="-8816" color-interpolation-filters="sRGB" filterUnits="userSpaceOnUse"><feFlood flood-color="#fff" result="bg"/><feBlend in="SourceGraphic" in2="bg"/></filter><linearGradient id="linear-gradient" x1="361.53" x2="430.59" y1="472.91" y2="655.07" gradientUnits="userSpaceOnUse"><stop offset="0"/><stop offset="1" stop-color="#fff"/></linearGradient><filter id="luminosity-noclip-2" width="106.2" height="32766" x="142.39" y="-8816" color-interpolation-filters="sRGB" filterUnits="userSpaceOnUse"><feFlood flood-color="#fff" result="bg"/><feBlend in="SourceGraphic" in2="bg"/></filter><linearGradient id="linear-gradient-2" x1="220.64" x2="182.61" y1="469.95" y2="544.01" xlink:href="#linear-gradient"/><filter id="luminosity-noclip-3" width="179.22" height="32766" x="204.35" y="-8816" color-interpolation-filters="sRGB" filterUnits="userSpaceOnUse"><feFlood flood-color="#fff" result="bg"/><feBlend in="SourceGraphic" in2="bg"/></filter><linearGradient id="linear-gradient-3" x1="294.67" x2="294" y1="467.85" y2="328.39" xlink:href="#linear-gradient"/><filter id="luminosity-noclip-4" width="92.55" height="32766" x="423.3" y="-8816" color-interpolation-filters="sRGB" filterUnits="userSpaceOnUse"><feFlood flood-color="#fff" result="bg"/><feBlend in="SourceGraphic" in2="bg"/></filter><linearGradient id="linear-gradient-4" x1="465.93" x2="394.54" y1="591.17" y2="631.2" xlink:href="#linear-gradient"/><clipPath id="clip-path"><rect width="610.42" height="789.21" class="cls-9"/></clipPath><filter id="luminosity-noclip-5" width="136.81" height="288.91" x="319.21" y="382.95" color-interpolation-filters="sRGB" filterUnits="userSpaceOnUse"><feFlood flood-color="#fff" result="bg"/><feBlend in="SourceGraphic" in2="bg"/></filter><mask id="mask-5" width="136.81" height="288.91" x="319.21" y="382.95" maskUnits="userSpaceOnUse"><g class="cls-1"><path d="M351.91,671.87c40.7-6,71.39-7.34,71.39-7.34s12-169.48,30.69-208.18S355.91,383,355.91,383l-36.7,256.22Z" class="cls-2"/></g></mask><linearGradient id="linear-gradient-5" x1="361.53" x2="430.59" y1="472.91" y2="655.07" gradientUnits="userSpaceOnUse"><stop offset="0" stop-color="#fff"/><stop offset="1" stop-color="#d3d8f2"/></linearGradient><filter id="luminosity-noclip-6" width="106.2" height="372.05" x="142.39" y="312.27" color-interpolation-filters="sRGB" filterUnits="userSpaceOnUse"><feFlood flood-color="#fff" result="bg"/><feBlend in="SourceGraphic" in2="bg"/></filter><mask id="mask-6" width="106.2" height="372.05" x="142.39" y="312.27" maskUnits="userSpaceOnUse"><g class="cls-3"><path d="M205.85,312.27c-2.55,2.7-4.74,5-4.74,5s-29.29,20.37-57.27,39.35L142.39,447c25.36,26.69,59.17,237.31,59.17,237.31l44.92-1.78s2.67-202.17,2-235.53C247.92,418.66,215.56,336.37,205.85,312.27Z" class="cls-4"/></g></mask><linearGradient id="linear-gradient-6" x1="220.64" x2="182.61" y1="469.95" y2="544.01" xlink:href="#linear-gradient-5"/><filter id="luminosity-noclip-7" width="179.22" height="247.05" x="204.35" y="265.49" color-interpolation-filters="sRGB" filterUnits="userSpaceOnUse"><feFlood flood-color="#fff" result="bg"/><feBlend in="SourceGraphic" in2="bg"/></filter><mask id="mask-7" width="179.22" height="247.05" x="204.35" y="265.49" maskUnits="userSpaceOnUse"><g class="cls-5"><path d="M234.63,512.54c.47-.09.92-.2,1.38-.3a656.63,656.63,0,0,1,78.56-10.36c15.87-1.22,31.78-1.8,47.68-2.6,2-20.75,4.35-39.36,7-52.94,11.09-56.67,18.75-111,11.47-159-9.13-10.1-19.07-22.59-24.48-21.85-7.34,1-137.78,18.35-137.78,18.35-3.34,1-4,17.68-5,19.68-.65,1.3-5.66,6.69-9.1,10.3-.07,38.49,20.22,98.36,27.45,165.85C232.89,489.82,233.82,500.92,234.63,512.54Z" class="cls-6"/></g></mask><linearGradient id="linear-gradient-7" x1="294.67" x2="294" y1="467.85" y2="328.39" gradientUnits="userSpaceOnUse"><stop offset="0" stop-color="#fff"/><stop offset="1" stop-color="#9b9fa2"/></linearGradient><linearGradient id="linear-gradient-8" x1="205.58" x2="360.92" y1="277.31" y2="277.31" gradientUnits="userSpaceOnUse"><stop offset="0" stop-color="#f1a17f"/><stop offset="1" stop-color="#e87979"/></linearGradient><linearGradient id="linear-gradient-9" x1="-2370.74" x2="-2370.74" y1="-8922.95" y2="-8897.07" gradientTransform="matrix(-1.76, 0.91, 0.91, 1.76, 4248.07, 17987.46)" xlink:href="#linear-gradient-8"/><linearGradient id="linear-gradient-10" x1="225.8" x2="258.49" y1="180.78" y2="180.78" gradientTransform="translate(32.08 -36.45) rotate(9.22)" xlink:href="#linear-gradient-8"/><linearGradient id="linear-gradient-11" x1="301.2" x2="333.89" y1="153.09" y2="153.09" xlink:href="#linear-gradient-8"/><filter id="luminosity-noclip-8" width="92.55" height="191.7" x="423.3" y="490.17" color-interpolation-filters="sRGB" filterUnits="userSpaceOnUse"><feFlood flood-color="#fff" result="bg"/><feBlend in="SourceGraphic" in2="bg"/></filter><mask id="mask-8" width="92.55" height="191.7" x="423.3" y="490.17" maskUnits="userSpaceOnUse"><g class="cls-7"><path d="M508,569.11c-15.38-45.59-51.56-71.28-63.87-78.94-13,62.76-20.87,174.36-20.87,174.36,32,1.33,82.74,17.34,82.74,17.34S526.72,624.49,508,569.11Z" class="cls-8"/></g></mask><linearGradient id="linear-gradient-12" x1="465.93" x2="394.54" y1="591.17" y2="631.2" xlink:href="#linear-gradient-5"/></defs><g class="cls-10"><g id="Layer_1" data-name="Layer 1"><g class="cls-11"><rect width="375" height="452.41" x="94.57" y="495.86" class="cls-12"/><path d="M218.46,283.87c-3.34,1-4,17.68-5,19.68s-12.34,13.68-12.34,13.68-58.05,40.37-88.74,60.39S55.65,431.66,55,473s8.67,168.14,24,192.83,115.43,66.72,115.43,66.72l-2,43.37s58.71,6,93.41,6.68,121.44,10.67,165.47,4.67,72.73-18,82.07-66.06,21.35-167.47,22-215.52-4.67-87.4-17.35-108.09-45.37-42.7-81.4-60.72-56.05-31.69-66.72-40.36-26.36-32-33.7-31S218.46,283.87,218.46,283.87Z" class="cls-12"/><g class="cls-13"><path d="M351.91,671.87c40.7-6,71.39-7.34,71.39-7.34s12-169.48,30.69-208.18S355.91,383,355.91,383l-36.7,256.22Z" class="cls-14"/></g><g class="cls-15"><path d="M205.85,312.27c-2.55,2.7-4.74,5-4.74,5s-29.29,20.37-57.27,39.35L142.39,447c25.36,26.69,59.17,237.31,59.17,237.31l44.92-1.78s2.67-202.17,2-235.53C247.92,418.66,215.56,336.37,205.85,312.27Z" class="cls-16"/></g><path d="M356.24,265.52c-7.34,1-137.78,18.35-137.78,18.35-3.34,1-4,17.68-5,19.68s-12.34,13.68-12.34,13.68-6.47,4.5-16.23,11.24C175.12,364.65,172.42,431,172.42,431l30,20-25.35,29.36,54,203.51,8.67-1.34,112.1-10.67s14.67-106.76,34.69-152.8,34.7-68.73,34.7-68.73l-22.69-28.69L431.31,407s-9.49-56.33-14.68-92a247.28,247.28,0,0,1-26.69-18.43C379.26,287.87,363.58,264.52,356.24,265.52Z" class="cls-17"/><path d="M351.91,671.87s5.33-164.14,17.34-225.53c11.09-56.67,18.75-111,11.47-159-9.13-10.1-19.07-22.59-24.48-21.85-7.34,1-137.78,18.35-137.78,18.35-3.34,1-4,17.68-5,19.68-.65,1.3-5.66,6.69-9.1,10.3-.07,38.49,20.22,98.36,27.45,165.85,8,74.73,8,202.84,8,202.84s26.69,0,49.38-1.33S351.91,671.87,351.91,671.87Z" class="cls-18"/><g class="cls-19"><path d="M234.63,512.54c.47-.09.92-.2,1.38-.3a656.63,656.63,0,0,1,78.56-10.36c15.87-1.22,31.78-1.8,47.68-2.6,2-20.75,4.35-39.36,7-52.94,11.09-56.67,18.75-111,11.47-159-9.13-10.1-19.07-22.59-24.48-21.85-7.34,1-137.78,18.35-137.78,18.35-3.34,1-4,17.68-5,19.68-.65,1.3-5.66,6.69-9.1,10.3-.07,38.49,20.22,98.36,27.45,165.85C232.89,489.82,233.82,500.92,234.63,512.54Z" class="cls-20"/></g><path d="M268.6,682.08c6.68-.19,13.81-.47,20.59-.87,22.68-1.34,62.72-9.34,62.72-9.34s1.8-55.54,5.68-114.09c-1.86-23.6-4-44.87-6.35-56.73-6.67-34-17.35-103.75-17.35-103.75l10.68-36s-21.32-24-32.36-22.35c-13.77,2-28,32.36-28,32.36l19,30.69s-11.35,59-18.69,113.76C278.44,561.05,271,652.12,268.6,682.08Z" class="cls-21"/><path d="M382.88,307.22c-.47-6.73-1.17-13.35-2.16-19.85-9.13-10.1-19.07-22.59-24.48-21.85-7.34,1-137.78,18.35-137.78,18.35-3.34,1-4,17.68-5,19.68,2,15.68,12,39,28,58.05a268.13,268.13,0,0,0,31,31.36s15.68-23,22-33,17.69-21,17.69-21c9.34-.67,43,38,43,38s7-16.68,14.68-34.36C374.16,332.82,379.2,318.29,382.88,307.22Z" class="cls-18"/><path d="M167.08,88.7s-14.68,17-10.34,38.7,8.34,32,13.68,38.37S205.56,199,205.56,199l15.23-99.31,100,11.23s-5.78-29.35-15.13-44c-4-6.33-9.34-16.91-9.34-16.91s4.9-22.68,2.23-27a5.22,5.22,0,0,0-7-2s11-14.35,4.34-17.35S265.16,22,265.16,22s12-16.68,1.34-19-33.7,29.36-33.7,29.36S247.15,10,237.47,7.63s-16.34,15.68-25.35,19.69-21.86,9.51-33.7,22.35C162.74,66.69,167.08,88.7,167.08,88.7Z" class="cls-22"/><path d="M315.25,121.86c9.11-10,22.63-9.87,30.58,6.21s9.9,35.68,0,45.83-16.53,5.55-16.53,5.55Z" class="cls-23"/><path d="M325.22,162.75l-6.41-26.28c.89-1.72,4.75-8.38,11-8.23,7.2.17,12.71,13.39,11.69,22.4C340.53,159.49,334.28,163.49,325.22,162.75Z" class="cls-24"/><path d="M183.21,91.82s9.34-7.56,16.9-8,15.79-1.78,36.7-7.12a107.17,107.17,0,0,0,35.36-16.45S293.52,70,306.87,88.7s22.24,39.59,28,63.17,17,59.94,7.34,83.63a188.61,188.61,0,0,0,7.67,19,131.09,131.09,0,0,0,11,18s-24,56.38-45.37,62.72-76.06-25.69-96.08-44.71c0,0-8.34-46.7-11.34-62.72-2.07-11-12.2-33.24-12.24-44.59,6-2.45,6.15-.49,10-2.89-9.34-16-5.19-33.39-10.23-56.5C191.66,105.5,188.1,100.27,183.21,91.82Z" class="cls-25"/><path d="M202.42,209.15c1.11,3.26,2.21,6.45,3.16,9.4,2.26,2.14,7.56,7.13,12.88,11.94,7,6.34,40,34.36,71.73,34.36s42.37-12.67,51.37-27.35l.87-1.43-.2-.57c8.57-21,.74-51.89-5.18-75.06-2.61,8.4-8.05,24.43-11.5,24.68-4.67.33-11.34-10.34-36.36-3a51.91,51.91,0,0,0-33,29.35,45.11,45.11,0,0,1-12-6c-7-4.67-17-2.34-22.36-5.34s-8-8-15.9-19.79c-3.81,2.37-4,.5-9.79,2.81Z" class="cls-26"/><path d="M360.92,272.53s-24,56.38-45.38,62.72-76.07-25.69-96.08-44.7c0,0-8.34-46.72-11.35-62.73a81.14,81.14,0,0,0-2.53-9.27c2.25,2.14,7.56,7.14,12.88,11.94,7,6.34,40,34.36,71.73,34.36s42.37-12.68,51.37-27.36c.29-.47.59-.93.86-1.41a188.71,188.71,0,0,0,7.48,18.43A131.74,131.74,0,0,0,360.92,272.53Z" class="cls-27"/><path d="M512.93,236a.61.61,0,0,1,.05.12,0,0,0,0,1,0,0A.5.5,0,0,0,512.93,236Z" class="cls-28"/><path d="M194.37,168.49c-17.15-2.82-33.83,5.54-34.22,23.91s8.7,36,26.94,38.48,23.73-5.44,23.73-5.44Z" class="cls-23"/><path d="M206.05,208.93l-7.51-26c-2.11-.9-10.8-4.14-18.49-.18-8.82,4.55-7.87,19-1.31,26S195.26,215.08,206.05,208.93Z" class="cls-24"/><path d="M266.05,111.07c-.05-3,9-9.69,18.73-12.46s17.34-.24,20.78,2.4,3.77,4.54-1.87,4.68-9.48,1.16-18.62,4.21c-8.1,2.7-16.88,9.13-16.88,9.13Z" class="cls-22"/><path d="M254.71,123.64c-1.64-2.51-12.87-3-22.49.13s-14.52,9.49-15.9,13.6c-1.43,4.29-.59,5.87,4.17,2.83s8.5-4.33,17.79-6.9c8.23-2.29,19.1-1.87,19.1-1.87Z" class="cls-22"/><path d="M265.05,125.85,299,158.63a4.71,4.71,0,0,1-1.41,7.57l-24,11-14-49Z" class="cls-29"/><path d="M282.41,170.15a3.87,3.87,0,0,0-7,3.3Z" class="cls-23"/><ellipse cx="237.64" cy="152.26" class="cls-30" rx="3.64" ry="3.78"/><path d="M296.06,129.91a3.64,3.64,0,1,0,3.63-3.78A3.7,3.7,0,0,0,296.06,129.91Z" class="cls-30"/><path d="M272.41,210.23A160.91,160.91,0,0,1,319.21,191C304.11,187.35,278.29,197.57,272.41,210.23Z" class="cls-12"/><circle cx="242.15" cy="180.78" r="16.35" class="cls-31" transform="translate(-25.83 41.12) rotate(-9.22)"/><circle cx="317.54" cy="153.09" r="16.35" class="cls-32"/><path d="M201.56,684.32s-88.52-31.14-91.64-32-17.79,1.34-17.79,1.34-2.67,11.56-2.67,16-5.78,10.23-5.78,14.68,5.78,7.12,5.34,10.23-7.12,5.34-6.23,12,9.34,11.57,9.34,16.91.89,12.9,7.12,17.79,22.68,8.89,38.25,12.9,55.16,10.23,55.16,10.23,2.67-29.8,4-40.48S201.56,684.32,201.56,684.32Z" class="cls-25"/><path d="M230.8,372.61l13.68-38.36s-8-39-8-58.72-1-42.7,3.67-47.37,8.68-4.34,14.68-7.68,8.34-9,11.35-6.67,3.33,9.68-.67,15.68a71.65,71.65,0,0,1-9.34,11s2.33,7.67,3.33,11c0,0,21.35-11.34,30.7-12s12.34,8.67,12.34,8.67,6-.33,8.34,5a25.65,25.65,0,0,1,2.34,9.34s6.33,1,7,12-.33,15-3.67,21-8,15.68-8,15.68,2,12.67,1.66,22-19.68,64.05-19.68,64.05Z" class="cls-25"/><path d="M301.6,286.3c2.21,9,6.94,24.93,6.94,24.93s4.67-9.68,8-15.68a26,26,0,0,0,3.69-11.18A101.29,101.29,0,0,1,301.6,286.3Z" class="cls-33"/><path d="M259.49,251.51c-1-3.34-3.33-11-3.33-11a71.65,71.65,0,0,0,9.34-11c4-6,3.67-13.34.67-15.68s-5.34,3.34-11.35,6.67-10,3-14.68,7.68c-3.69,3.69-3.84,18.84-3.74,34.75l6.08-2.39S249.82,256.51,259.49,251.51Z" class="cls-25"/><path d="M303.2,402l-72.4-29.36s-50.37,89.08-67.05,119.77-61.39,112.76-67.4,136.78-20,39.37-1.33,60.72,53.38,28.69,75.4,19.35,46-60.05,67.39-104.75S303.2,402,303.2,402Z" class="cls-12"/><g class="cls-34"><path d="M508,569.11c-15.38-45.59-51.56-71.28-63.87-78.94-13,62.76-20.87,174.36-20.87,174.36,32,1.33,82.74,17.34,82.74,17.34S526.72,624.49,508,569.11Z" class="cls-35"/></g></g></g></g></svg>